# Blender v2.80 (sub 75) OBJ File: 'box.blend'
# www.blender.org
mtllib box_bottom.mtl
o Box.002_Cube.001
v 1.205832 -1.113149 0.779835
v 1.193466 -1.125515 0.779835
v -0.794168 -1.113149 -1.195433
v -0.781802 -1.113149 -1.207799
v -0.781802 -1.125515 -1.195433
v 1.193466 -1.113149 -1.207799
v 1.205832 -1.113149 -1.195433
v 1.193466 -1.125515 -1.195433
v -0.781802 -1.125515 0.779835
v -0.628803 -1.047594 -1.042434
v -0.638365 -1.057157 -1.051996
v 1.050029 -1.057157 -1.051996
v 1.040467 -1.047594 -1.042434
v 1.050029 -1.057157 0.636398
v 1.040467 -1.047594 0.626836
v -0.628803 -1.047594 0.626836
v -0.638365 -1.057157 0.636398
v -0.638365 -1.118130 -1.051996
v -0.645750 -1.125515 -1.059381
v 1.057414 -1.125515 -1.059381
v 1.050029 -1.118130 -1.051996
v -0.638365 -1.118130 0.636398
v -0.645750 -1.125515 0.643783
v 1.057414 -1.125515 0.643783
v 1.050029 -1.118130 0.636398
v 3.800512 -0.361620 -0.305910
v 3.809268 -0.368949 -0.300144
v 3.508772 -0.330247 -1.976143
v 3.502623 -0.323253 -1.967373
v 1.841257 -0.373208 -1.670655
v 3.798980 -0.300689 -0.304228
v 3.501091 -0.262322 -1.965692
v 1.839725 -0.312277 -1.668974
vt 0.824002 0.916875
vt 0.807023 0.584425
vt 0.824002 0.584425
vt 0.662861 0.871230
vt 0.645883 0.538781
vt 0.662861 0.538781
vt 0.509463 0.489206
vt 0.940131 0.457348
vt 0.971988 0.489206
vt 0.806500 0.581826
vt 0.823479 0.914275
vt 0.806500 0.914275
vt 0.640400 0.864779
vt 0.623422 0.532330
vt 0.640400 0.532330
vt 0.940131 0.058538
vt 0.971988 0.026680
vt 0.546052 0.063582
vt 0.936926 0.454456
vt 0.546052 0.454456
vt 0.541320 0.058538
vt 0.509463 0.026680
vt 0.541320 0.457348
vt 0.504623 0.488448
vt 0.504623 0.483915
vt 0.507827 0.486181
vt 0.845356 0.006434
vt 0.295301 0.009877
vt 0.295301 0.006434
vt 0.299899 0.565282
vt 0.296455 0.015222
vt 0.299899 0.015222
vt 0.274349 0.531017
vt 0.271687 0.063523
vt 0.274349 0.066185
vt 0.714977 0.977350
vt 0.712314 0.509849
vt 0.714977 0.512512
vt 0.718040 0.512514
vt 0.720702 0.980010
vt 0.718040 0.977347
vt 0.489459 0.065692
vt 0.492122 0.533174
vt 0.489459 0.530511
vt 0.367434 0.538197
vt 0.365377 0.066067
vt 0.367434 0.068123
vt 0.371587 0.538244
vt 0.369531 0.066021
vt 0.371587 0.068078
vt 0.369510 0.538243
vt 0.367454 0.066021
vt 0.369510 0.068077
vt 0.471326 0.521966
vt 0.469269 0.049743
vt 0.471326 0.051800
vt 0.958535 0.511902
vt 0.956478 0.984122
vt 0.956478 0.513958
vt 0.754039 0.511602
vt 0.742033 0.981757
vt 0.742033 0.511602
vt 0.785426 0.945489
vt 0.771148 0.550137
vt 0.785426 0.550137
vt 0.807023 0.916875
vt 0.645882 0.871230
vt 0.823479 0.581826
vt 0.623422 0.864779
vt 0.936926 0.063582
vt 0.845356 0.009877
vt 0.296455 0.565282
vt 0.271687 0.533679
vt 0.712314 0.980013
vt 0.720702 0.509852
vt 0.492122 0.063030
vt 0.365377 0.540254
vt 0.369531 0.540300
vt 0.367454 0.540300
vt 0.469269 0.524023
vt 0.958535 0.986179
vt 0.754039 0.981757
vt 0.771148 0.945489
vn 1.0000 0.0000 0.0000
vn 0.0000 0.0000 1.0000
vn 0.0000 -1.0000 0.0000
vn 0.0000 0.0000 -1.0000
vn -1.0000 0.0000 0.0000
vn -0.5773 -0.5774 -0.5773
vn 0.0000 -0.7071 -0.7071
vn 0.7071 -0.7071 0.0000
vn 0.0000 -0.7071 0.7071
vn -0.7071 -0.7071 0.0000
vn -0.6781 -0.7275 0.1048
vn 0.1764 -0.0227 0.9841
vn -0.9840 -0.0296 0.1757
vn -0.6780 -0.7276 0.1048
usemtl Material.001
s off
f 18/1/1 17/2/1 22/3/1
f 21/4/2 11/5/2 18/6/2
f 8/7/3 19/8/3 5/9/3
f 22/10/4 14/11/4 25/12/4
f 25/13/5 12/14/5 21/15/5
f 5/9/3 23/16/3 9/17/3
f 13/18/3 16/19/3 10/20/3
f 9/17/3 24/21/3 2/22/3
f 2/22/3 20/23/3 8/7/3
f 3/24/6 4/25/6 5/26/6
f 5/27/7 6/28/7 8/29/7
f 8/30/8 1/31/8 2/32/8
f 10/33/9 12/34/9 13/35/9
f 16/36/8 11/37/8 10/38/8
f 13/39/10 14/40/10 15/41/10
f 15/42/7 17/43/7 16/44/7
f 18/45/9 20/46/9 21/47/9
f 22/48/8 19/49/8 18/50/8
f 21/51/10 24/52/10 25/53/10
f 25/54/7 23/55/7 22/56/7
f 28/57/11 26/58/11 29/59/11
f 30/60/12 32/61/12 33/62/12
f 26/63/13 32/64/13 29/65/13
f 18/1/1 11/66/1 17/2/1
f 21/4/2 12/67/2 11/5/2
f 8/7/3 20/23/3 19/8/3
f 22/10/4 17/68/4 14/11/4
f 25/13/5 14/69/5 12/14/5
f 5/9/3 19/8/3 23/16/3
f 13/18/3 15/70/3 16/19/3
f 9/17/3 23/16/3 24/21/3
f 2/22/3 24/21/3 20/23/3
f 5/27/7 4/71/7 6/28/7
f 8/30/8 7/72/8 1/31/8
f 10/33/9 11/73/9 12/34/9
f 16/36/8 17/74/8 11/37/8
f 13/39/10 12/75/10 14/40/10
f 15/42/7 14/76/7 17/43/7
f 18/45/9 19/77/9 20/46/9
f 22/48/8 23/78/8 19/49/8
f 21/51/10 20/79/10 24/52/10
f 25/54/7 24/80/7 23/55/7
f 28/57/14 27/81/14 26/58/14
f 30/60/12 29/82/12 32/61/12
f 26/63/13 31/83/13 32/64/13
