# Blender v2.80 (sub 75) OBJ File: 'box.blend'
# www.blender.org
mtllib box_side.mtl
o Box.001_Cube.000
v 3.424668 -0.184891 -1.927967
v 3.412810 -0.197615 -1.926135
v 1.644749 -0.177141 -1.453182
v 1.633894 -0.186762 -1.461175
v 3.287297 -0.127752 -1.746539
v 3.581812 -0.165684 -0.103894
v 1.939265 -0.215073 0.189463
v 1.931783 -0.225129 0.200289
v 3.594680 -0.236105 -0.098111
v 3.603436 -0.243434 -0.092345
v 3.302940 -0.204732 -1.768344
v 3.296791 -0.197738 -1.759574
v 1.927536 -0.293826 0.206969
v 1.933315 -0.286060 0.198607
v 1.635425 -0.247693 -1.462856
v 1.627041 -0.255124 -1.469030
v 1.931783 -0.225129 0.200289
v 1.939265 -0.215073 0.189463
v 3.581812 -0.165684 -0.103894
v 3.593148 -0.175174 -0.096429
v 3.287297 -0.127752 -1.746539
v 3.295259 -0.136807 -1.757893
v 1.633894 -0.186762 -1.461175
v 1.644749 -0.177141 -1.453182
v 3.761313 -0.242500 0.017627
v 3.773171 -0.229777 0.015795
v 1.469163 -0.256058 -1.579002
v 1.817666 -0.300943 0.364761
v 3.732800 -0.080026 -0.122729
v 3.436112 -0.041814 -1.777495
v 1.982026 -0.085537 -1.517797
v 2.278714 -0.123749 0.136970
v 3.745782 -0.090893 -0.114180
v 3.732800 -0.080026 -0.122729
v 3.445230 -0.052184 -1.790496
v 3.436112 -0.041814 -1.777495
v 1.627041 -0.255124 -1.469030
v 1.635425 -0.247693 -1.462856
v 1.933315 -0.286060 0.198607
v 1.927536 -0.293826 0.206969
v 3.302940 -0.204732 -1.768344
v 3.603436 -0.243434 -0.092345
v 3.445230 -0.052184 -1.790496
v 3.745782 -0.090893 -0.114180
v 2.464990 -0.229928 -1.618687
v 2.440987 -0.226836 -1.752568
vt 0.482410 0.565758
vt 0.478967 0.015713
vt 0.482410 0.015713
vt 0.899339 0.509626
vt 0.902002 0.977122
vt 0.899339 0.979785
vt 0.949247 0.511903
vt 0.947190 0.984121
vt 0.947190 0.513959
vt 0.351633 0.502563
vt 0.349188 0.105486
vt 0.351633 0.103756
vt 0.360066 0.105483
vt 0.362511 0.502567
vt 0.360066 0.500837
vt 0.330914 0.499280
vt 0.327748 0.106174
vt 0.330914 0.103935
vt 0.907924 0.979786
vt 0.905261 0.512289
vt 0.907924 0.509626
vt 0.324381 0.497043
vt 0.327548 0.103933
vt 0.327548 0.499282
vt 0.754562 0.981757
vt 0.742556 0.511603
vt 0.754562 0.511603
vt 0.018683 0.570401
vt 0.056568 0.932549
vt 0.018683 0.959338
vt 0.530838 0.597190
vt 0.056568 0.597190
vt 0.062604 0.930627
vt 0.527434 0.601942
vt 0.527434 0.930627
vt 0.293703 0.959338
vt 0.293703 0.932549
vt 0.568723 0.959338
vt 0.568723 0.570401
vt 0.801613 0.945086
vt 0.787335 0.549734
vt 0.801613 0.549734
vt 0.554595 0.077596
vt 0.927220 0.443247
vt 0.554595 0.443247
vt 0.337636 0.537318
vt 0.340685 0.066021
vt 0.340685 0.540367
vt 0.971989 0.026680
vt 0.541283 0.058500
vt 0.509463 0.026680
vt 0.530838 0.932549
vt 0.478967 0.565758
vt 0.902002 0.512289
vt 0.949247 0.986178
vt 0.349188 0.500835
vt 0.362511 0.103754
vt 0.327748 0.497041
vt 0.905261 0.977123
vt 0.324381 0.106172
vt 0.742556 0.981757
vt 0.062604 0.601942
vt 0.787336 0.945086
vt 0.927220 0.077595
vt 0.337636 0.069070
vt 0.940169 0.058500
vn 0.7135 -0.6857 -0.1438
vn 0.7136 -0.6857 -0.1438
vn -0.1070 -0.6906 -0.7153
vn 0.1425 -0.7227 0.6763
vn -0.1070 -0.6905 -0.7153
vn -0.6780 -0.7275 0.1048
vn -0.1764 0.0227 -0.9841
vn 0.0251 -0.9993 -0.0276
vn 0.9840 0.0296 -0.1757
vn -0.0251 0.9993 0.0276
vn 0.6780 0.7275 -0.1048
usemtl Material.001
s off
f 26/1/1 2/2/1 1/3/1
f 4/4/2 7/5/2 8/6/2
f 40/7/2 38/8/2 39/9/2
f 13/10/3 9/11/3 10/12/3
f 15/13/4 11/14/4 12/15/4
f 17/16/5 19/17/5 20/18/5
f 20/19/6 21/20/6 22/21/6
f 21/22/4 23/23/4 22/24/4
f 14/25/7 20/26/7 9/27/7
f 25/28/8 41/29/8 2/30/8
f 25/28/8 40/31/8 42/32/8
f 5/33/8 7/34/8 3/35/8
f 46/36/8 41/29/8 45/37/8
f 27/38/8 40/31/8 28/39/8
f 38/40/9 8/41/9 39/42/9
f 30/43/10 32/44/10 29/45/10
f 36/46/11 33/47/11 35/48/11
f 1/49/9 44/50/9 26/51/9
f 46/36/8 37/52/8 27/38/8
f 26/1/2 25/53/2 2/2/2
f 4/4/2 3/54/2 7/5/2
f 40/7/1 37/55/1 38/8/1
f 13/10/3 14/56/3 9/11/3
f 15/13/4 16/57/4 11/14/4
f 17/16/5 18/58/5 19/17/5
f 20/19/6 19/59/6 21/20/6
f 21/22/4 24/60/4 23/23/4
f 14/25/7 17/61/7 20/26/7
f 25/28/8 42/32/8 41/29/8
f 25/28/8 28/39/8 40/31/8
f 5/33/8 6/62/8 7/34/8
f 46/36/8 2/30/8 41/29/8
f 27/38/8 37/52/8 40/31/8
f 38/40/9 4/63/9 8/41/9
f 30/43/10 31/64/10 32/44/10
f 36/46/11 34/65/11 33/47/11
f 1/49/9 43/66/9 44/50/9
f 46/36/8 45/37/8 37/52/8
