# Blender v2.80 (sub 75) OBJ File: 'box.blend'
# www.blender.org
mtllib box_lid.mtl
o Top_Cube.005
v 1.118852 1.021709 -0.001572
v 1.131925 1.031271 -0.005030
v -0.327564 1.031271 -0.853891
v -0.324105 1.021709 -0.840818
v -1.176424 1.031271 0.605598
v -1.163351 1.021709 0.602140
v 0.279607 1.021709 1.441386
v 0.283065 1.031271 1.454459
v -0.330235 1.099630 -0.863988
v -0.327564 1.092244 -0.853891
v 0.283065 1.092244 1.454459
v 0.285736 1.099630 1.464556
v 1.131925 1.092244 -0.005030
v 1.142023 1.099630 -0.007701
v -1.186521 1.099630 0.608269
v -1.176424 1.092244 0.605598
v -1.364112 1.099630 0.655247
v 0.332714 1.099630 1.642146
v 1.319613 1.099630 -0.054680
v -0.377213 1.099630 -1.041579
v -1.370164 1.015613 0.662787
v 0.329272 1.015613 1.651204
v 1.317689 1.015613 -0.048232
v -0.381747 1.015613 -1.036649
v -1.370050 1.093487 0.653221
v -1.368078 1.093487 0.660744
v -1.368478 1.096550 0.656620
v 0.329906 1.093487 1.648317
v 0.337420 1.093487 1.646311
v 0.333685 1.096548 1.646625
v 1.324968 1.093487 -0.051630
v 1.322996 1.093487 -0.059153
v 1.323423 1.096750 -0.055484
v -0.374988 1.093487 -1.046726
v -0.382502 1.093487 -1.044720
v -0.378393 1.096752 -1.045283
v -1.371554 1.020250 0.666840
v -1.373526 1.020250 0.659317
v -1.371981 1.016987 0.663171
v 0.333944 1.020250 1.652407
v 0.326430 1.020250 1.654413
v 0.329835 1.016985 1.652970
v 1.319520 1.020250 -0.053057
v 1.321492 1.020250 -0.045534
v 1.319920 1.017187 -0.048933
v -0.385978 1.020250 -1.038624
v -0.378464 1.020250 -1.040630
v -0.382243 1.017189 -1.038938
vt 0.167686 0.508425
vt 0.153353 0.113072
vt 0.167631 0.113072
vt 0.119769 0.508425
vt 0.105437 0.113072
vt 0.119714 0.113072
vt 0.190358 0.508426
vt 0.176026 0.113071
vt 0.190304 0.113071
vt 0.141595 0.508425
vt 0.127263 0.113072
vt 0.141540 0.113072
vt 0.971287 0.487528
vt 0.940871 0.058303
vt 0.971287 0.027887
vt 0.061284 0.602526
vt 0.528865 0.928531
vt 0.061284 0.928530
vt 0.982536 0.855485
vt 0.982540 0.634035
vt 0.986574 0.855485
vt 0.040677 0.151001
vt 0.045269 0.425084
vt 0.040742 0.425084
vt 0.053615 0.152230
vt 0.058207 0.426315
vt 0.053680 0.426315
vt 0.604463 0.589793
vt 0.609055 0.863873
vt 0.604528 0.863873
vt 0.066832 0.151000
vt 0.071424 0.425084
vt 0.066897 0.425084
vt 0.060292 0.168039
vt 0.064355 0.408045
vt 0.060324 0.408045
vt 0.076922 0.166810
vt 0.080984 0.406813
vt 0.076954 0.406813
vt 0.612360 0.608295
vt 0.616422 0.848301
vt 0.612392 0.848301
vt 0.830456 0.626866
vt 0.834590 0.862754
vt 0.830489 0.862754
vt 0.511646 0.027887
vt 0.542062 0.457111
vt 0.511646 0.487528
vt 0.542062 0.058303
vt 0.046785 0.389973
vt 0.046794 0.193362
vt 0.050223 0.193362
vt 0.940871 0.457111
vt 0.993952 0.631369
vt 0.993955 0.858152
vt 0.989822 0.858152
vt 0.227103 0.518057
vt 0.209882 0.058117
vt 0.227110 0.058103
vt 0.238855 0.517858
vt 0.255998 0.059567
vt 0.256005 0.519501
vt 0.417608 0.080151
vt 0.434779 0.538447
vt 0.417629 0.540091
vt 0.400496 0.077893
vt 0.383261 0.537832
vt 0.383268 0.077879
vt 0.925182 0.441638
vt 0.557054 0.073510
vt 0.925182 0.073510
vt 0.675429 0.847721
vt 0.671917 0.645984
vt 0.675429 0.645984
vt 0.679234 0.643512
vt 0.682822 0.850193
vt 0.679225 0.850193
vt 0.601500 0.628365
vt 0.601500 0.825301
vt 0.597905 0.825301
vt 0.979725 0.628251
vt 0.979735 0.860707
vt 0.975686 0.628251
vt 0.828059 0.526697
vt 0.826242 0.526821
vt 0.827148 0.526024
vt 0.821390 0.543966
vt 0.823207 0.544088
vt 0.822296 0.544762
vt 0.823816 0.543924
vt 0.825633 0.544048
vt 0.824726 0.544762
vt 0.818964 0.544047
vt 0.820781 0.543925
vt 0.819871 0.544762
vt 0.826242 0.544049
vt 0.828059 0.543924
vt 0.827149 0.544762
vt 0.823207 0.526861
vt 0.821390 0.526739
vt 0.822298 0.526024
vt 0.825633 0.526821
vt 0.823816 0.526697
vt 0.824727 0.526024
vt 0.820781 0.526697
vt 0.818964 0.526819
vt 0.819870 0.526024
vt 0.968297 0.863344
vt 0.968301 0.625615
vt 0.972437 0.625615
vt 0.153408 0.508425
vt 0.105492 0.508425
vt 0.176080 0.508426
vt 0.127317 0.508425
vt 0.528865 0.602526
vt 0.984598 0.634035
vt 0.986574 0.634035
vt 0.984681 0.855485
vt 0.045233 0.151001
vt 0.058171 0.152230
vt 0.609019 0.589793
vt 0.071388 0.151000
vt 0.064355 0.168039
vt 0.080984 0.166810
vt 0.616422 0.608295
vt 0.834590 0.626866
vt 0.047720 0.193362
vt 0.050220 0.389973
vt 0.047790 0.389973
vt 0.992020 0.858152
vt 0.989819 0.631369
vt 0.991771 0.631369
vt 0.209875 0.518071
vt 0.238849 0.057924
vt 0.434757 0.078507
vt 0.400489 0.537846
vt 0.557054 0.441638
vt 0.674300 0.847721
vt 0.671926 0.847721
vt 0.674390 0.645984
vt 0.680353 0.643512
vt 0.682824 0.643512
vt 0.680446 0.850193
vt 0.600566 0.825301
vt 0.597902 0.628365
vt 0.600292 0.628365
vt 0.977609 0.860707
vt 0.975703 0.860707
vt 0.977712 0.628251
vt 0.970305 0.625615
vt 0.972437 0.863344
vt 0.970345 0.863344
vn 0.5028 0.0000 -0.8644
vn 0.8644 0.0000 0.5028
vn -0.5028 0.0000 0.8644
vn -0.8644 0.0000 -0.5028
vn 0.0000 1.0000 0.0000
vn 0.3725 0.6716 -0.6405
vn -0.3555 0.7071 0.6112
vn -0.6112 0.7071 -0.3555
vn 0.6112 0.7071 0.3555
vn 0.3555 0.7071 -0.6112
vn -0.3725 -0.6716 0.6404
vn -0.6108 0.7076 -0.3552
vn 0.5005 -0.0954 -0.8605
vn -0.8644 -0.0008 -0.5028
vn 0.8644 0.0008 0.5028
vn -0.5005 0.0954 0.8605
vn 0.0000 -1.0000 0.0000
vn 0.6108 -0.7076 0.3552
vn 0.3385 -0.7394 -0.5820
vn -0.6103 -0.7082 -0.3550
vn 0.6103 0.7082 0.3550
vn -0.9457 0.2101 0.2479
vn 0.2522 0.2106 0.9445
vn 0.9554 0.1566 -0.2504
vn -0.2548 0.1562 -0.9543
vn -0.9554 -0.1567 0.2504
vn 0.2548 -0.1562 0.9543
vn 0.9457 -0.2101 -0.2479
vn -0.2521 -0.2106 -0.9445
vn -0.9652 0.0669 0.2530
vn -0.2573 -0.0680 -0.9639
vn 0.2574 0.0680 0.9639
vn 0.9652 -0.0669 -0.2530
vn -0.3385 0.7394 0.5820
vn 0.3725 0.6716 -0.6404
vn 0.3555 0.7071 -0.6113
vn -0.3724 -0.6716 0.6405
vn -0.3726 -0.6716 0.6404
vn -0.6107 0.7077 -0.3553
vn 0.3386 -0.7394 -0.5820
vn 0.3385 -0.7393 -0.5820
vn -0.6103 -0.7082 -0.3549
vn 0.6103 0.7082 0.3549
vn -0.2574 -0.0680 -0.9639
vn 0.2573 0.0680 0.9639
vn -0.3385 0.7393 0.5820
usemtl Material.001
s off
f 11/1/1 5/2/1 16/3/1
f 16/4/2 3/5/2 10/6/2
f 10/7/3 2/8/3 13/9/3
f 13/10/4 8/11/4 11/12/4
f 17/13/5 9/14/5 20/15/5
f 4/16/5 7/17/5 1/18/5
f 32/19/6 34/20/6 19/21/6
f 1/22/7 3/23/7 4/24/7
f 7/25/8 2/26/8 1/27/8
f 4/28/9 5/29/9 6/30/9
f 6/31/10 8/32/10 7/33/10
f 13/34/7 9/35/7 10/36/7
f 11/37/8 14/38/8 13/39/8
f 10/40/9 15/41/9 16/42/9
f 16/43/10 12/44/10 11/45/10
f 19/46/5 12/47/5 18/48/5
f 20/15/5 14/49/5 19/46/5
f 21/50/11 22/51/11 41/52/11
f 18/48/5 15/53/5 17/13/5
f 35/54/12 25/55/12 17/56/12
f 32/57/13 47/58/13 34/59/13
f 25/60/14 46/61/14 38/62/14
f 29/63/15 44/64/15 31/65/15
f 28/66/16 37/67/16 41/68/16
f 23/69/17 21/70/17 24/71/17
f 23/72/18 40/73/18 22/74/18
f 24/75/19 43/76/19 23/77/19
f 24/78/20 21/79/20 38/80/20
f 29/81/21 31/82/21 18/83/21
f 25/84/22 26/85/22 27/86/22
f 28/87/23 29/88/23 30/89/23
f 31/90/24 32/91/24 33/92/24
f 34/93/25 35/94/25 36/95/25
f 37/96/26 38/97/26 39/98/26
f 40/99/27 41/100/27 42/101/27
f 43/102/28 44/103/28 45/104/28
f 46/105/29 47/106/29 48/107/29
f 26/85/30 38/97/30 37/96/30
f 47/106/31 35/94/31 34/93/31
f 40/99/32 28/87/32 41/100/32
f 43/102/33 31/90/33 44/103/33
f 26/108/34 28/109/34 18/110/34
f 11/1/1 8/111/1 5/2/1
f 16/4/2 5/112/2 3/5/2
f 10/7/3 3/113/3 2/8/3
f 13/10/4 2/114/4 8/11/4
f 17/13/5 15/53/5 9/14/5
f 4/16/5 6/115/5 7/17/5
f 36/116/35 20/117/35 34/20/35
f 20/117/6 19/21/6 34/20/6
f 19/21/6 33/118/6 32/19/6
f 1/22/7 2/119/7 3/23/7
f 7/25/8 8/120/8 2/26/8
f 4/28/9 3/121/9 5/29/9
f 6/31/36 5/122/36 8/32/36
f 13/34/7 14/123/7 9/35/7
f 11/37/8 12/124/8 14/38/8
f 10/40/9 9/125/9 15/41/9
f 16/43/10 15/126/10 12/44/10
f 19/46/5 14/49/5 12/47/5
f 20/15/5 9/14/5 14/49/5
f 22/51/37 42/127/37 41/52/37
f 41/52/11 37/128/11 21/50/11
f 37/128/38 39/129/38 21/50/38
f 18/48/5 12/47/5 15/53/5
f 27/130/39 17/56/39 25/55/39
f 17/56/12 20/131/12 35/54/12
f 20/131/12 36/132/12 35/54/12
f 32/57/13 43/133/13 47/58/13
f 25/60/14 35/134/14 46/61/14
f 29/63/15 40/135/15 44/64/15
f 28/66/16 26/136/16 37/67/16
f 23/69/17 22/137/17 21/70/17
f 23/72/18 45/138/18 44/139/18
f 44/139/18 40/73/18 23/72/18
f 40/73/18 42/140/18 22/74/18
f 24/75/40 48/141/40 47/142/40
f 47/142/19 43/76/19 24/75/19
f 43/76/41 45/143/41 23/77/41
f 21/79/42 39/144/42 38/80/42
f 38/80/20 46/145/20 24/78/20
f 46/145/42 48/146/42 24/78/42
f 33/147/21 19/148/21 31/82/21
f 19/148/21 18/83/21 31/82/21
f 18/83/43 30/149/43 29/81/43
f 26/85/30 25/84/30 38/97/30
f 47/106/44 46/105/44 35/94/44
f 40/99/45 29/88/45 28/87/45
f 43/102/33 32/91/33 31/90/33
f 30/150/34 18/110/34 28/109/34
f 18/110/34 17/151/34 26/108/34
f 17/151/46 27/152/46 26/108/46
