# Blender v2.80 (sub 75) OBJ File: ''
# www.blender.org
mtllib torch.mtl
o WallTorch.002_Cone.002
v -0.147343 1.518578 0.448462
v -0.127875 1.518036 0.393819
v -0.153783 1.519405 0.339009
v -0.209891 1.521884 0.316140
v -0.263331 1.524020 0.338607
v -0.282799 1.524562 0.393251
v -0.256891 1.523193 0.448061
v -0.200783 1.520714 0.470930
v -0.213005 0.845420 0.390181
v -0.254372 0.844697 0.389905
v -0.235407 0.843806 0.369711
v -0.249240 0.844124 0.375542
v -0.232353 0.846352 0.411229
v -0.220416 0.844472 0.375565
v -0.217824 0.846316 0.405170
v -0.247556 0.845660 0.404640
vt 0.081518 0.005222
vt 0.000344 0.886176
vt 0.000000 0.000000
vt 0.339763 0.013975
vt 0.192417 0.882029
vt 0.251423 0.008795
vt 0.169875 0.012652
vt 0.022086 0.892734
vt 0.548929 0.902365
vt 0.573652 0.000020
vt 0.665901 0.008534
vt 0.169875 0.000000
vt 0.387170 0.890668
vt 0.417740 0.000000
vt 0.507868 0.009917
vt 0.525049 0.900020
vt 0.507868 0.000000
vt 0.362684 0.893497
vt 0.339763 0.000905
vt 0.216309 0.884065
vt 0.045065 0.898873
vt 0.170281 0.883918
vt 0.508005 0.894949
vt 0.342159 0.899136
vn -0.3791 -0.0640 0.9231
vn 0.3823 -0.0992 0.9187
vn -0.9038 -0.0398 0.4262
vn -0.3889 -0.0580 -0.9195
vn 0.9349 -0.1195 0.3343
vn 0.8974 -0.1113 -0.4270
vn -0.9414 -0.0377 -0.3350
vn 0.3727 -0.0868 -0.9239
vn -0.3944 -0.0642 0.9167
vn 0.3828 -0.0992 0.9185
vn -0.9059 -0.0400 0.4216
vn 0.9429 -0.1210 0.3104
vn 0.8892 -0.1118 -0.4436
vn -0.9415 -0.0377 -0.3349
vn 0.3657 -0.0870 -0.9267
usemtl WTorch_Material.002
s off
f 7/1/1 13/2/1 8/3/1
f 8/4/2 15/5/2 1/6/2
f 6/7/3 16/8/3 7/1/3
f 11/9/4 5/10/4 4/11/4
f 15/5/5 2/12/5 1/6/5
f 9/13/6 3/14/6 2/15/6
f 12/16/7 6/17/7 5/10/7
f 14/18/8 4/19/8 3/14/8
f 7/1/9 16/8/9 13/2/9
f 8/4/10 13/20/10 15/5/10
f 6/7/11 10/21/11 16/8/11
f 11/9/4 12/16/4 5/10/4
f 15/5/12 9/22/12 2/12/12
f 9/13/13 14/18/13 3/14/13
f 12/16/14 10/23/14 6/17/14
f 14/18/15 11/24/15 4/19/15
