# Blender v2.80 (sub 75) OBJ File: 'project.blend'
# www.blender.org
mtllib wall_torch.mtl
o WallTorch.001_Cone.001
v 4.564528 -0.304550 -5.829421
v 4.564528 -0.140561 -5.829421
v 4.584592 -0.140561 -5.824784
v 4.584592 -0.304550 -5.824784
v 4.548342 -0.304550 -5.667938
v 4.548342 -0.140561 -5.667938
v 4.528278 -0.140561 -5.672575
v 4.528278 -0.304550 -5.672575
v 4.529416 -0.304550 -5.697095
v 4.529416 -0.140561 -5.697095
v 4.554791 -0.140561 -5.806888
v 4.554791 -0.304550 -5.806888
v 4.533716 -0.339690 -5.696102
v 4.559091 -0.339690 -5.805894
v 4.579154 -0.339690 -5.801257
v 4.553780 -0.339690 -5.691464
v 4.559091 -0.105420 -5.805894
v 4.533715 -0.105420 -5.696102
v 4.553780 -0.105420 -5.691464
v 4.579154 -0.105420 -5.801257
v 4.417327 -0.228534 -5.696368
v 4.419842 -0.243907 -5.707250
v 4.423912 -0.238035 -5.724857
v 4.423912 -0.219034 -5.724857
v 4.419842 -0.213162 -5.707250
v 4.358234 -0.228534 -5.751500
v 4.368916 -0.243907 -5.754763
v 4.386199 -0.238035 -5.760042
v 4.386199 -0.219034 -5.760042
v 4.368916 -0.213162 -5.754763
v 4.376433 -0.228534 -5.830242
v 4.384599 -0.243907 -5.822623
v 4.397813 -0.238035 -5.810295
v 4.397813 -0.219034 -5.810295
v 4.384599 -0.213162 -5.822623
v 4.453725 -0.228534 -5.853852
v 4.451210 -0.243907 -5.842970
v 4.447140 -0.238035 -5.825363
v 4.447140 -0.219034 -5.825363
v 4.451210 -0.213162 -5.842970
v 4.512818 -0.228534 -5.798721
v 4.502136 -0.243907 -5.795458
v 4.484853 -0.238035 -5.790178
v 4.484853 -0.219034 -5.790178
v 4.502136 -0.213162 -5.795458
v 4.494619 -0.228534 -5.719979
v 4.486453 -0.243907 -5.727598
v 4.473239 -0.238035 -5.739926
v 4.473239 -0.219034 -5.739926
v 4.486453 -0.213162 -5.727598
v 4.489785 -0.213162 -5.742016
v 4.475707 -0.219034 -5.750603
v 4.498486 -0.228534 -5.736710
v 4.489785 -0.243907 -5.742016
v 4.475707 -0.238035 -5.750603
v 4.499146 -0.243907 -5.782517
v 4.509347 -0.228534 -5.783704
v 4.482638 -0.219034 -5.780595
v 4.499146 -0.213162 -5.782517
v 4.537333 -0.213162 -5.731027
v 4.547470 -0.228534 -5.774894
v 4.536609 -0.228534 -5.727899
v 4.537333 -0.243906 -5.731027
v 4.546693 -0.243906 -5.771528
v 4.546693 -0.213162 -5.771528
v 4.482638 -0.238035 -5.780595
v 4.332681 0.083845 -5.800393
v 4.343450 0.085885 -5.743428
v 4.393352 0.090811 -5.709329
v 4.453156 0.095737 -5.718072
v 4.487829 0.097777 -5.764535
v 4.477060 0.095737 -5.821501
v 4.427158 0.090811 -5.855599
v 4.367354 0.085885 -5.846856
v 4.449728 -0.583549 -5.758745
v 4.485581 -0.583374 -5.779395
v 4.479440 -0.583560 -5.752367
v 4.488419 -0.583267 -5.764399
v 4.455768 -0.583360 -5.786705
v 4.463530 -0.583535 -5.749858
v 4.446290 -0.583374 -5.774136
v 4.472232 -0.583366 -5.788687
vt 0.924402 0.046470
vt 0.955616 0.260949
vt 0.924627 0.261805
vt 0.921558 0.632747
vt 0.890642 0.845413
vt 0.890853 0.632775
vt 0.705287 0.262078
vt 0.886238 0.046218
vt 0.886236 0.261385
vt 0.928147 0.983689
vt 0.959795 0.802074
vt 0.959238 0.983785
vt 0.931917 0.593172
vt 0.963566 0.411556
vt 0.963011 0.593267
vt 0.959575 0.307621
vt 0.928585 0.308477
vt 0.704676 0.308074
vt 0.924402 0.045959
vt 0.885628 0.000000
vt 0.705289 0.046911
vt 0.665904 0.046949
vt 0.704679 0.000693
vt 0.897140 0.897063
vt 0.921346 0.845385
vt 0.927844 0.897035
vt 0.665901 0.262116
vt 0.928147 0.593267
vt 0.897442 0.593295
vt 0.924400 0.261126
vt 0.885625 0.307381
vt 0.955392 0.045614
vt 0.928265 0.000856
vt 0.959255 0.000000
vt 0.938233 0.593267
vt 0.950894 0.705566
vt 0.928147 0.708573
vt 0.857443 0.814317
vt 0.843061 0.720724
vt 0.869270 0.707983
vt 0.706288 0.510498
vt 0.775537 0.574562
vt 0.680852 0.524734
vt 0.776132 0.593267
vt 0.666264 0.535448
vt 0.980084 0.308477
vt 0.959575 0.188945
vt 0.979985 0.178701
vt 0.755914 0.862336
vt 0.834302 0.799468
vt 0.776406 0.547398
vt 0.872221 0.517414
vt 1.000000 0.300910
vt 0.999915 0.189069
vt 0.910967 0.382534
vt 0.891560 0.482648
vt 0.890642 0.397460
vt 0.692690 0.791844
vt 0.759116 0.835028
vt 0.849485 0.425857
vt 0.848004 0.505077
vt 0.874222 0.410437
vt 0.888321 0.526954
vt 0.910968 0.593267
vt 0.912033 0.481383
vt 0.678042 0.697688
vt 0.666214 0.804022
vt 0.779537 0.360609
vt 0.931917 0.483720
vt 0.980114 0.000000
vt 0.959603 0.022884
vt 0.959575 0.000821
vt 0.757998 0.659872
vt 0.776634 0.677540
vt 0.760659 0.685096
vt 0.707769 0.431278
vt 0.703395 0.405614
vt 0.722982 0.422286
vt 0.999978 0.022817
vt 0.999950 0.000754
vt 0.938425 0.801979
vt 0.959752 0.786063
vt 0.779570 0.649669
vt 0.682852 0.417757
vt 0.997894 0.109505
vt 0.980146 0.025601
vt 0.909779 0.324195
vt 0.890709 0.381645
vt 0.890642 0.308883
vt 0.715787 0.706319
vt 0.697403 0.688531
vt 0.765714 0.397028
vt 0.761099 0.371507
vt 0.726496 0.593267
vt 0.913619 0.916912
vt 0.904576 0.937463
vt 0.890642 0.916941
vt 0.779368 0.388957
vt 0.930574 0.381685
vt 0.909832 0.382534
vt 0.952187 0.351462
vt 0.972275 0.411461
vt 0.952187 0.410366
vt 0.701449 0.713100
vt 0.904509 0.897088
vt 0.665901 0.342182
vt 0.723605 0.308074
vt 0.931918 0.410388
vt 0.931917 0.336921
vt 0.081518 0.005222
vt 0.000344 0.886176
vt 0.000000 0.000000
vt 0.339763 0.013975
vt 0.192417 0.882029
vt 0.251423 0.008795
vt 0.169875 0.012652
vt 0.022086 0.892734
vt 0.548929 0.902365
vt 0.573652 0.000020
vt 0.665901 0.008534
vt 0.169875 0.000000
vt 0.387170 0.890668
vt 0.417740 0.000000
vt 0.507868 0.009917
vt 0.508005 0.894949
vt 0.507868 0.000000
vt 0.362684 0.893497
vt 0.339763 0.000905
vt 0.928704 0.801979
vt 0.932473 0.411461
vt 0.959587 0.606195
vt 0.959660 0.300786
vt 0.890642 0.402823
vt 0.890642 0.579070
vt 0.930999 0.580142
vt 0.977728 0.126190
vt 0.665901 0.621926
vt 0.924378 0.937438
vt 0.930507 0.308923
vt 0.972274 0.337994
vt 0.924312 0.897063
vt 0.216309 0.884065
vt 0.045065 0.898873
vt 0.525049 0.900020
vt 0.170281 0.883918
vt 0.342159 0.899136
vn 0.2252 0.0000 -0.9743
vn -0.2251 0.0000 0.9743
vn -0.9743 0.0000 -0.2252
vn 0.0000 -1.0000 0.0000
vn -0.0000 1.0000 -0.0000
vn 0.1856 -0.5663 -0.8030
vn -0.9667 0.1246 -0.2234
vn -0.9989 0.0000 -0.0464
vn -0.9914 -0.1226 -0.0460
vn -0.9110 -0.1226 -0.3937
vn -0.1856 -0.5664 0.8030
vn -0.9180 0.0000 -0.3967
vn -0.1856 0.5663 0.8030
vn -0.9110 0.1226 -0.3937
vn -0.9914 0.1226 -0.0460
vn -0.9667 -0.1246 -0.2234
vn 0.1856 0.5663 -0.8030
vn -0.5774 -0.5326 0.6189
vn 0.2396 -0.9363 -0.2568
vn 0.2396 0.9363 -0.2568
vn -0.5774 0.5326 0.6189
vn -0.8247 -0.5325 -0.1906
vn 0.3423 -0.9363 0.0791
vn 0.3423 0.9363 0.0791
vn -0.8246 0.5326 -0.1906
vn -0.2473 -0.5325 -0.8095
vn 0.1026 -0.9363 0.3359
vn 0.1026 0.9363 0.3359
vn -0.2473 0.5325 -0.8095
vn 0.5774 -0.5326 -0.6189
vn -0.2396 -0.9363 0.2568
vn -0.2396 0.9363 0.2568
vn 0.5774 0.5326 -0.6189
vn 0.8247 -0.5325 0.1906
vn -0.3423 -0.9363 -0.0791
vn -0.3422 0.9363 -0.0791
vn 0.8246 0.5326 0.1906
vn 0.2473 -0.5326 0.8095
vn -0.1026 -0.9363 -0.3359
vn -0.1026 0.9363 -0.3359
vn 0.2473 0.5326 0.8095
vn -0.2204 0.2045 0.9537
vn -0.3422 -0.9363 -0.0791
vn 0.8247 -0.5326 0.1906
vn -0.3423 0.9363 -0.0791
vn -0.2204 -0.2045 0.9537
vn 0.2197 0.2193 -0.9506
vn 0.8247 0.5326 0.1906
vn 0.2197 -0.2192 -0.9506
vn -0.1353 -0.1064 -0.9851
vn -0.7881 -0.1576 -0.5950
vn 0.5666 -0.0438 -0.8229
vn 0.8014 0.0008 0.5981
vn -0.9693 -0.1576 0.1889
vn -0.5537 -0.1068 0.8258
vn 0.9826 0.0008 -0.1858
vn 0.1481 -0.0440 0.9880
vn 0.2251 0.0000 -0.9743
vn 0.1856 -0.5664 -0.8030
vn -0.1856 -0.5663 0.8030
vn -0.1856 0.5664 0.8030
vn -0.5774 -0.5325 0.6189
vn 0.2396 -0.9363 -0.2569
vn 0.2396 0.9363 -0.2569
vn -0.5774 0.5325 0.6189
vn -0.8246 -0.5326 -0.1906
vn 0.3422 -0.9363 0.0791
vn 0.3422 0.9363 0.0791
vn -0.8247 0.5325 -0.1906
vn 0.1026 -0.9363 0.3360
vn 0.1026 0.9363 0.3360
vn 0.5774 -0.5325 -0.6189
vn -0.2396 -0.9363 0.2569
vn 0.5774 0.5325 -0.6189
vn 0.8247 0.5325 0.1906
vn -0.1026 -0.9363 -0.3360
vn -0.1026 0.9363 -0.3360
vn -0.2205 0.2045 0.9537
vn 0.2197 0.2192 -0.9506
vn 0.2197 -0.2193 -0.9506
vn -0.1188 -0.1059 -0.9873
vn -0.7884 -0.1576 -0.5946
vn 0.5707 -0.0437 -0.8200
vn -0.9641 -0.1579 0.2136
vn -0.5383 -0.1063 0.8361
vn 0.9826 0.0008 -0.1860
vn 0.1555 -0.0438 0.9869
usemtl WTorch_Material.001
s off
f 2/1/1 4/2/1 1/3/1
f 7/4/2 5/5/2 6/6/2
f 11/7/3 9/8/3 10/9/3
f 15/10/4 13/11/4 14/12/4
f 19/13/5 17/14/5 18/15/5
f 1/3/6 15/16/6 14/17/6
f 10/9/7 17/18/7 11/7/7
f 8/19/8 10/9/8 9/8/8
f 9/8/9 13/20/9 8/19/9
f 12/21/10 1/22/10 14/23/10
f 16/24/11 8/25/11 13/26/11
f 1/22/12 11/7/12 2/27/12
f 18/28/13 6/6/13 19/29/13
f 2/27/14 11/7/14 17/18/14
f 10/9/15 7/30/15 18/31/15
f 13/20/16 12/21/16 14/23/16
f 3/32/17 17/33/17 20/34/17
f 26/35/18 22/36/18 21/37/18
f 27/38/19 23/39/19 22/40/19
f 24/41/20 30/42/20 25/43/20
f 25/43/21 26/44/21 21/45/21
f 31/46/22 27/47/22 26/48/22
f 32/49/23 28/50/23 27/38/23
f 29/51/24 35/52/24 30/42/24
f 35/53/25 26/48/25 30/54/25
f 31/55/26 37/56/26 32/57/26
f 32/49/27 38/58/27 33/59/27
f 39/60/28 35/52/28 34/61/28
f 40/62/29 31/63/29 35/52/29
f 41/64/30 37/56/30 36/65/30
f 42/66/31 38/58/31 37/67/31
f 39/60/32 45/68/32 40/62/32
f 40/69/33 41/64/33 36/65/33
f 53/70/34 47/71/34 54/72/34
f 54/73/35 48/74/35 55/75/35
f 49/76/36 51/77/36 52/78/36
f 50/79/37 53/70/37 51/80/37
f 46/81/38 22/36/38 47/82/38
f 47/83/39 23/39/39 48/74/39
f 24/41/40 50/84/40 49/76/40
f 25/85/41 46/86/41 50/79/41
f 53/87/42 60/88/42 51/89/42
f 54/73/43 66/90/43 56/91/43
f 58/92/36 51/77/36 59/93/36
f 56/91/4 63/94/4 54/73/4
f 57/95/44 42/96/44 41/97/44
f 44/98/45 59/93/45 45/68/45
f 53/87/46 63/99/46 62/100/46
f 57/101/47 65/102/47 61/103/47
f 56/91/35 43/104/35 42/66/35
f 45/105/48 57/95/48 41/97/48
f 59/93/5 60/106/5 65/107/5
f 57/101/49 64/108/49 56/109/49
f 73/110/50 79/111/50 74/112/50
f 74/113/51 81/114/51 67/115/51
f 72/116/52 82/117/52 73/110/52
f 77/118/53 71/119/53 70/120/53
f 81/114/54 68/121/54 67/115/54
f 75/122/55 69/123/55 68/124/55
f 71/119/56 76/125/56 72/126/56
f 80/127/57 70/128/57 69/123/57
f 2/1/58 3/32/58 4/2/58
f 7/4/2 8/25/2 5/5/2
f 11/7/3 12/21/3 9/8/3
f 15/10/4 16/129/4 13/11/4
f 19/13/5 20/130/5 17/14/5
f 1/3/59 4/2/59 15/16/59
f 10/9/7 18/31/7 17/18/7
f 8/19/8 7/30/8 10/9/8
f 16/24/60 5/5/60 8/25/60
f 1/22/12 12/21/12 11/7/12
f 18/28/61 7/4/61 6/6/61
f 13/20/16 9/8/16 12/21/16
f 3/32/17 2/1/17 17/33/17
f 26/35/62 27/131/62 22/36/62
f 27/38/63 28/50/63 23/39/63
f 24/41/64 29/51/64 30/42/64
f 25/43/65 30/42/65 26/44/65
f 31/46/66 32/132/66 27/47/66
f 32/49/67 33/59/67 28/50/67
f 29/51/68 34/61/68 35/52/68
f 35/53/69 31/46/69 26/48/69
f 31/55/26 36/65/26 37/56/26
f 32/49/70 37/67/70 38/58/70
f 39/60/71 40/62/71 35/52/71
f 40/62/29 36/133/29 31/63/29
f 41/64/72 42/134/72 37/56/72
f 42/66/73 43/104/73 38/58/73
f 39/60/32 44/98/32 45/68/32
f 40/69/74 45/135/74 41/64/74
f 53/70/34 46/86/34 47/71/34
f 54/73/43 47/83/43 48/74/43
f 49/76/45 50/84/45 51/77/45
f 50/79/75 46/86/75 53/70/75
f 46/81/38 21/37/38 22/36/38
f 47/83/76 22/40/76 23/39/76
f 24/41/77 25/43/77 50/84/77
f 25/85/41 21/136/41 46/86/41
f 53/87/78 62/100/78 60/88/78
f 54/73/43 55/75/43 66/90/43
f 58/92/45 52/78/45 51/77/45
f 56/91/4 64/137/4 63/94/4
f 57/95/44 56/138/44 42/96/44
f 44/98/36 58/92/36 59/93/36
f 53/87/46 54/139/46 63/99/46
f 57/101/79 59/140/79 65/102/79
f 56/91/43 66/90/43 43/104/43
f 45/105/48 59/141/48 57/95/48
f 59/93/5 51/77/5 60/106/5
f 57/101/80 61/103/80 64/108/80
f 73/110/81 82/117/81 79/111/81
f 74/113/82 79/142/82 81/114/82
f 72/116/83 76/143/83 82/117/83
f 77/118/53 78/144/53 71/119/53
f 81/114/84 75/145/84 68/121/84
f 75/122/85 80/127/85 69/123/85
f 71/119/86 78/144/86 76/125/86
f 80/127/87 77/146/87 70/128/87
